<svg width="512" height="512" viewBox="0 0 512 512" fill="none" xmlns="http://www.w3.org/2000/svg">
  <rect width="512" height="512" rx="120" fill="url(#bg)"/>
  <rect x="18" y="18" width="476" height="476" rx="102" stroke="url(#frame)" stroke-width="10"/>
  <path d="M154 264C124 235 95 223 69 226C90 190 121 175 161 180C189 183 213 195 241 220C216 223 184 237 154 264Z" fill="url(#wingLeft)"/>
  <path d="M358 264C388 235 417 223 443 226C422 190 391 175 351 180C323 183 299 195 271 220C296 223 328 237 358 264Z" fill="url(#wingRight)"/>
  <circle cx="256" cy="150" r="54" stroke="url(#halo)" stroke-width="18"/>
  <path d="M257 172C203 172 174 211 163 274C155 319 167 358 197 391C211 406 232 415 256 415C280 415 301 406 315 391C345 358 357 319 349 274C338 211 309 172 257 172Z" fill="url(#crest)"/>
  <path d="M258.5 203L319 364H286L273 328H239L226 364H193L254 203H258.5ZM246.5 299H264.5L255.5 269L246.5 299Z" fill="#FFF8F0"/>
  <path d="M228 313H284V336H228V313Z" fill="#FFF8F0"/>
  <defs>
    <linearGradient id="bg" x1="72" y1="40" x2="446" y2="470" gradientUnits="userSpaceOnUse">
      <stop stop-color="#FFFDF9"/>
      <stop offset="1" stop-color="#EFE3D1"/>
    </linearGradient>
    <linearGradient id="frame" x1="47" y1="56" x2="471" y2="483" gradientUnits="userSpaceOnUse">
      <stop stop-color="#F8E8D2"/>
      <stop offset="1" stop-color="#D6B48A"/>
    </linearGradient>
    <linearGradient id="wingLeft" x1="82" y1="195" x2="220" y2="271" gradientUnits="userSpaceOnUse">
      <stop stop-color="#D9C1A1"/>
      <stop offset="1" stop-color="#C29A6F"/>
    </linearGradient>
    <linearGradient id="wingRight" x1="430" y1="195" x2="292" y2="271" gradientUnits="userSpaceOnUse">
      <stop stop-color="#D9C1A1"/>
      <stop offset="1" stop-color="#C29A6F"/>
    </linearGradient>
    <linearGradient id="halo" x1="202" y1="100" x2="310" y2="204" gradientUnits="userSpaceOnUse">
      <stop stop-color="#C99A5D"/>
      <stop offset="1" stop-color="#B17A42"/>
    </linearGradient>
    <linearGradient id="crest" x1="181" y1="179" x2="330" y2="410" gradientUnits="userSpaceOnUse">
      <stop stop-color="#3A3128"/>
      <stop offset="1" stop-color="#241E18"/>
    </linearGradient>
  </defs>
</svg>
