<svg width="512" height="512" viewBox="0 0 512 512" fill="none" xmlns="http://www.w3.org/2000/svg">
  <rect width="512" height="512" rx="120" fill="url(#bg)"/>
  <rect x="18" y="18" width="476" height="476" rx="102" stroke="url(#frame)" stroke-width="10"/>
  <circle cx="256" cy="124" r="44" stroke="url(#halo)" stroke-width="16"/>
  <path d="M130 246C174 199 225 180 256 180C219 212 192 250 180 294C162 285 145 270 130 246Z" fill="url(#wing)"/>
  <path d="M382 246C338 199 287 180 256 180C293 212 320 250 332 294C350 285 367 270 382 246Z" fill="url(#wing)"/>
  <path d="M256 178C214 178 184 205 171 252L145 350C140 370 154 390 174 390H338C358 390 372 370 367 350L341 252C328 205 298 178 256 178Z" fill="url(#crest)"/>
  <path d="M256 216L302 338H276L266 307H246L236 338H210L256 216Z" fill="#FFF9F2"/>
  <rect x="238" y="286" width="36" height="14" fill="#FFF9F2"/>
  <defs>
    <linearGradient id="bg" x1="72" y1="40" x2="446" y2="470" gradientUnits="userSpaceOnUse">
      <stop stop-color="#FFFFFF"/>
      <stop offset="1" stop-color="#F1E3D0"/>
    </linearGradient>
    <linearGradient id="frame" x1="47" y1="56" x2="471" y2="483" gradientUnits="userSpaceOnUse">
      <stop stop-color="#F3DEC0"/>
      <stop offset="1" stop-color="#C89A66"/>
    </linearGradient>
    <linearGradient id="wing" x1="168" y1="205" x2="336" y2="308" gradientUnits="userSpaceOnUse">
      <stop stop-color="#DFC5A4"/>
      <stop offset="1" stop-color="#C18A4D"/>
    </linearGradient>
    <linearGradient id="halo" x1="202" y1="100" x2="310" y2="204" gradientUnits="userSpaceOnUse">
      <stop stop-color="#BC7C35"/>
      <stop offset="1" stop-color="#9E6425"/>
    </linearGradient>
    <linearGradient id="crest" x1="181" y1="179" x2="330" y2="410" gradientUnits="userSpaceOnUse">
      <stop stop-color="#3B3026"/>
      <stop offset="1" stop-color="#221A14"/>
    </linearGradient>
  </defs>
</svg>
