<svg width="512" height="512" viewBox="0 0 512 512" fill="none" xmlns="http://www.w3.org/2000/svg">
  <rect width="512" height="512" rx="120" fill="url(#bg)"/>
  <rect x="18" y="18" width="476" height="476" rx="102" stroke="url(#frame)" stroke-width="10"/>
  <circle cx="256" cy="130" r="46" stroke="url(#halo)" stroke-width="16"/>
  <path d="M114 250C155 211 200 193 234 193C205 215 183 250 173 287C151 280 131 268 114 250Z" fill="url(#wing)"/>
  <path d="M398 250C357 211 312 193 278 193C307 215 329 250 339 287C361 280 381 268 398 250Z" fill="url(#wing)"/>
  <path d="M256 192C210 192 176 221 162 274L142 346C137 366 151 384 172 384H340C361 384 375 366 370 346L350 274C336 221 302 192 256 192Z" fill="url(#shield)"/>
  <path d="M255 230L303 346H279L268 314H244L233 346H209L257 230H255ZM251 289H261L256 273L251 289Z" fill="#FFF9F2"/>
  <defs>
    <linearGradient id="bg" x1="64" y1="36" x2="448" y2="474" gradientUnits="userSpaceOnUse">
      <stop stop-color="#FFFFFF"/>
      <stop offset="1" stop-color="#F2E5D4"/>
    </linearGradient>
    <linearGradient id="frame" x1="42" y1="56" x2="470" y2="482" gradientUnits="userSpaceOnUse">
      <stop stop-color="#F3E0C3"/>
      <stop offset="1" stop-color="#C3945A"/>
    </linearGradient>
    <linearGradient id="halo" x1="206" y1="94" x2="306" y2="188" gradientUnits="userSpaceOnUse">
      <stop stop-color="#C49152"/>
      <stop offset="1" stop-color="#A86F34"/>
    </linearGradient>
    <linearGradient id="wing" x1="148" y1="210" x2="363" y2="290" gradientUnits="userSpaceOnUse">
      <stop stop-color="#E1C8A8"/>
      <stop offset="1" stop-color="#C58D50"/>
    </linearGradient>
    <linearGradient id="shield" x1="184" y1="204" x2="330" y2="386" gradientUnits="userSpaceOnUse">
      <stop stop-color="#3A3027"/>
      <stop offset="1" stop-color="#211A14"/>
    </linearGradient>
  </defs>
</svg>
