<svg width="480" height="110" viewBox="0 0 480 110" fill="none" xmlns="http://www.w3.org/2000/svg">
  <defs>
    <linearGradient id="wordmarkBg" x1="20" y1="8" x2="460" y2="102" gradientUnits="userSpaceOnUse">
      <stop stop-color="#15243A"/>
      <stop offset="1" stop-color="#0B1422"/>
    </linearGradient>
    <linearGradient id="wordmarkAccent" x1="60" y1="24" x2="60" y2="82" gradientUnits="userSpaceOnUse">
      <stop stop-color="#67CBFF"/>
      <stop offset="1" stop-color="#2F9DFF"/>
    </linearGradient>
  </defs>
  <rect width="480" height="110" rx="26" fill="url(#wordmarkBg)"/>
  <rect x="8" y="8" width="464" height="94" rx="18" stroke="#324D71" stroke-width="3"/>
  <path d="M30 81L52 31H58L80 81H70L65 67H45L40 81H30Z" fill="#EAF3FF"/>
  <path d="M49 55H61L55 42L49 55Z" fill="#0F1A2A"/>
  <rect x="47" y="59" width="16" height="5" fill="url(#wordmarkAccent)"/>
  <path d="M24 38C33 29 44 25 55 25C66 25 77 29 86 38" stroke="url(#wordmarkAccent)" stroke-width="5" stroke-linecap="round"/>
  <text x="112" y="46" fill="#F2F8FF" font-family="Georgia, serif" font-size="29" font-weight="700" letter-spacing="1.4">SHADOWPOINT</text>
  <text x="112" y="74" fill="#AFC5E2" font-family="Manrope, Arial, sans-serif" font-size="17" font-weight="700" letter-spacing="3.8">BAIL</text>
</svg>
